<svg width="20" height="20" viewBox="0 0 20 20" fill="none"
  xmlns="http://www.w3.org/2000/svg">
  <path d="M3.71875 3.92972C5.62789 3.36733 8.45568 2.52411 9.64828 2.16812C10.0173 2.05797 10.4075 2.05711 10.7771 2.16533C11.926 2.50173 14.5984 3.28783 16.6648 3.92349C17.0828 4.05209 17.3679 4.44593 17.3575 4.88319C17.1188 14.9867 12.0196 17.4105 10.5842 17.8936C10.3388 17.9762 10.0837 17.9764 9.83802 17.8945C8.39567 17.4137 3.25421 14.9951 3.00907 4.89714C2.9983 4.45317 3.29276 4.05521 3.71875 3.92972Z" fill="#FFFFFF"/>
  <mask id="mask0_156_252" style="mask-type:alpha" maskUnits="userSpaceOnUse" x="3" y="2" width="15" height="16">
    <path d="M3.71875 3.92972C5.62789 3.36733 8.45568 2.52411 9.64828 2.16812C10.0173 2.05797 10.4075 2.05711 10.7771 2.16533C11.926 2.50173 14.5984 3.28783 16.6648 3.92349C17.0828 4.05209 17.3679 4.44593 17.3575 4.88319C17.1188 14.9867 12.0196 17.4105 10.5842 17.8936C10.3388 17.9762 10.0837 17.9764 9.83802 17.8945C8.39567 17.4137 3.25421 14.9951 3.00907 4.89714C2.9983 4.45317 3.29276 4.05521 3.71875 3.92972Z" fill="#FFFFFF"/>
  </mask>
  <g mask="url(#mask0_156_252)">
    <path d="M10.2112 9.77465L10.0986 1.71831L17.8169 3.80282L10.2112 9.77465Z" fill="#FFFFFF"/>
    <path d="M10.2113 9.77465V2L2.83098 3.97183L1.81689 8.76056L5.02816 13.7746L10.2113 9.77465Z" fill="#FFFFFF"/>
    <path d="M17.5915 3.97183L4.91547 13.7746V18.2254H17.4225L17.5915 3.97183Z" fill="#FFFFFF"/>
  </g>
</svg>
